<svg width="810" height="810" viewBox="0 0 810 810" fill="none" xmlns="http://www.w3.org/2000/svg">
<path d="M317.43 583.81C303.84 597.39 290.85 610.34 277.88 623.31C242.92 658.3 207.95 693.26 173.05 728.31C168.65 732.73 163.8 734.67 157.84 732.42C123.38 719.42 97.4601 697.44 84.2901 662.14C83.7301 660.63 83.3601 659.04 82.8901 657.49C81.1101 651.67 82.4801 646.85 86.8501 642.51C104.67 624.83 122.37 607.03 140.11 589.27C172.16 557.2 204.19 525.12 236.29 493.11C238.24 491.16 238.97 489.52 238.28 486.67C217.61 401.49 197.05 316.28 176.47 231.08C176.24 230.11 176.01 229.14 175.79 228.17C173.94 219.81 178.81 212.87 187.39 211.98C192.72 211.43 198.08 211.3 203.56 210.97C202.48 205.04 201.2 199.12 200.37 193.15C198.13 177.11 199.16 161.37 206.98 146.88C217.43 127.54 233.79 116.82 255.88 115.27C274.4 113.97 291.74 118.65 308.51 125.95C311.09 127.07 312.75 127.08 315.06 125.09C329.23 112.84 344.5 102.31 362.73 96.99C382.35 91.27 400.59 93.71 416.34 107.59C426.43 116.48 431.82 128.21 435.23 140.96C436.25 144.77 437 148.64 437.93 152.73C440.73 150.55 443.32 148.47 445.97 146.46C461.25 134.85 478.23 132.22 496.64 136.77C512.43 140.67 526.25 148.5 539.18 158.05C541.55 159.8 543.24 159.9 545.78 158.54C560.49 150.62 575.98 145.13 592.62 142.63C625.27 137.73 654.45 159.59 658.8 192.32C661.24 210.65 658.64 228.39 653.77 245.96C653.12 248.31 653.4 249.72 655.31 251.39C668.5 262.92 679.42 276.25 687.1 292.14C700.51 319.87 691.63 350.8 665.29 366.69C661.73 368.84 660.98 370.77 661.48 374.84C663.03 387.31 663.86 399.87 664.98 412.52C672.38 417.52 680.73 422.57 688.42 428.48C699.79 437.21 709.69 447.44 715.82 460.69C724.99 480.53 722.43 499.36 709.97 516.87C700.57 530.09 687.23 538.43 672.56 544.63C665.11 547.78 657.4 550.37 649.67 552.73C646.81 553.6 645.79 554.99 645.18 557.67C641.57 573.43 636.19 588.54 627.7 602.4C622.09 611.56 615.17 619.47 605.83 625.09C604.63 625.81 603.61 627.43 603.25 628.83C600.93 637.76 594.92 641.51 585.81 639.31C511.76 621.42 437.72 603.51 363.67 585.61C362.85 585.41 362.01 585.3 360.4 585C362.4 587.59 363.94 589.6 365.5 591.6C381.22 611.75 393.46 634.09 406.18 656.14C410.6 663.8 415.39 671.28 420.45 678.53C432.84 696.27 450.84 704.13 471.64 706.57C478.32 707.35 485.09 707.42 491.81 707.87C497.09 708.22 500.69 711.09 502.63 715.85C504.54 720.51 503.62 724.92 500.45 728.82C498.02 731.81 494.79 733.43 490.99 733.4C472.78 733.23 454.91 731.03 437.85 724.15C421.72 717.65 408.73 707 399.2 692.71C389.32 677.89 380.77 662.19 371.28 647.1C362.92 633.8 354.07 620.81 345.41 607.7C344.68 606.59 343.75 605.6 342.59 604.16C341.06 612.21 339.47 619.73 338.22 627.3C336.34 638.74 334.12 650.16 333.07 661.69C331.37 680.45 336.97 696.97 350.58 710.36C354.69 714.41 356.5 719.02 354.72 724.58C351.9 733.38 340.85 736.4 334.02 729.95C319.36 716.12 310.46 699.2 307.91 679.07C305.51 660.15 309.32 641.83 312.68 623.38C314.87 611.4 316.04 599.23 317.63 587.14C317.74 586.33 317.52 585.48 317.38 583.83L317.43 583.81ZM204.57 236.77C204.7 238.21 204.68 238.59 204.77 238.94C224.52 320.73 244.27 402.52 264.11 484.28C264.6 486.31 265.88 488.41 267.36 489.92C286.51 509.27 305.72 528.55 325.05 547.71C326.78 549.43 329.29 550.8 331.67 551.38C404.57 569.14 477.51 586.78 550.44 604.42C560.09 606.76 569.76 609.05 579.98 611.5C579.98 606.53 580.27 602.03 579.91 597.58C579.4 591.25 578.76 584.9 577.54 578.67C573.85 559.74 565.26 543.32 550.53 530.71C543.97 525.09 536.39 520.66 529.26 515.71C522.62 511.11 520.71 504.95 524.56 497.87C533.34 481.71 531.92 465.38 525.61 449.09C517.58 428.38 503.83 411.91 486.05 398.93C473.37 389.68 459.65 382.89 443.09 384.37C436.94 384.92 431.61 379.53 430.81 373.05C430.34 369.22 429.9 365.38 429.39 361.55C426.06 336.23 413.23 316.68 392.22 302.77C368.03 286.76 341.62 280.36 312.75 287C307.59 288.19 303.48 286.07 300.35 281.99C299.3 280.61 298.48 279.04 297.65 277.51C291.73 266.53 282.98 258.43 272.25 252.27C257.69 243.92 241.76 240.14 225.29 238.27C218.52 237.5 211.7 237.27 204.56 236.76L204.57 236.77ZM535.36 194.34C534.95 193.53 534.55 192.62 534.05 191.76C532.07 188.33 530.82 184 527.94 181.67C517.81 173.49 506.71 166.75 494.12 162.88C470.83 155.72 450.91 167.55 446.05 191.4C445.57 193.76 444.96 195.95 447.91 197.81C467.98 210.46 485.38 225.56 493.33 249.07C515.69 220.17 556.99 223.14 576.68 248.37C595.58 272.59 590.08 307.57 564.44 324.67C552.04 332.94 538.43 335.36 524.03 332.09C504.48 327.65 492.07 314.93 484.88 296.2C474.75 310.28 461.08 319.18 446.14 325.87C448.5 333.09 450.69 340.08 453.12 346.98C453.45 347.91 454.95 348.9 455.99 349.01C460.33 349.47 464.7 349.69 469.07 349.82C473.01 349.94 476.96 349.85 480.56 349.85C482.05 355.59 483.24 360.82 484.84 365.92C485.3 367.38 486.68 368.91 488.05 369.68C507.48 380.58 523.12 395.54 535.75 413.78C536.79 415.28 537.84 416.77 539.4 419C544.31 415.8 549.34 413.37 553.32 409.77C567.03 397.34 575.58 381.44 582.21 364.43C585.78 355.28 585.66 355.67 595.43 356.17C612.79 357.06 629.87 355.22 645.96 348.12C665.1 339.67 672.2 322.89 664.33 304.35C658.04 289.53 647.09 278.21 635.15 267.81C634.26 267.04 632.63 266.89 631.33 266.85C627.28 266.73 623.23 266.81 618.79 266.81C619.57 264.76 620.18 263.28 620.7 261.77C624.03 252.12 627.88 242.61 630.51 232.78C634.12 219.32 635.79 205.56 632.46 191.69C628.79 176.37 614.98 166.76 599.27 168.03C586.5 169.06 574.49 172.69 563.2 178.44C553.8 183.23 544.83 188.89 535.34 194.35L535.36 194.34ZM381.02 267.75C408.39 280.87 409.02 281.33 430.37 302.38C431.02 303.02 432.77 303.41 433.5 303C440.98 298.81 449.06 295.3 455.62 289.95C472.85 275.91 474.04 257.95 459.79 240.82C452.61 232.19 443.94 225.26 434.32 219.57C427.79 215.71 421.14 212 413.04 213.31C412.5 213.4 411.89 213.09 411.06 212.91C411.29 210.91 411.52 209.07 411.72 207.23C412.4 201.03 413.36 194.85 413.7 188.63C414.52 173.36 414.01 158.18 409.18 143.46C406.72 135.95 403.13 129.14 396.45 124.58C387.9 118.76 378.56 119.07 369.15 121.97C356.41 125.9 345.51 133.17 335.4 141.6C329.02 146.92 323.1 152.8 316.87 158.52C312.43 156.26 307.93 153.83 303.31 151.65C289.2 145 274.7 139.96 258.74 140.74C243.62 141.48 231.53 150.34 227.33 164.73C222.68 180.64 225.55 196.12 231.39 211.19C231.79 212.23 233.47 213.14 234.71 213.43C242.58 215.3 250.65 216.51 258.37 218.86C266.77 221.41 274.87 224.97 283.37 228.18C289.73 216.19 298.97 206.48 312.22 201.32C325.47 196.16 338.82 196.36 351.94 202C371.08 210.23 390.71 233.89 381.02 267.73V267.75ZM302.16 563C285.44 546.28 269.05 529.9 252.57 513.43C252.1 513.88 251.27 514.63 250.49 515.41C204.47 561.41 158.47 607.44 112.37 653.36C109.99 655.73 109.82 657.48 111.18 660.4C120.62 680.58 136.44 694.06 155.9 703.94C158.65 705.34 160.15 704.94 162.26 702.82C186.9 678 211.63 653.28 236.38 628.57C258.38 606.59 280.43 584.66 302.16 563ZM636.19 432.8C636.95 423.69 638.19 414.66 638.32 405.62C638.45 396.61 637.46 387.58 636.95 378.33C632.17 379.19 628.53 379.99 624.86 380.48C621.03 380.99 617.11 381.78 613.32 381.45C605.27 380.74 601.47 384.42 597.87 391.51C592.22 402.65 584.65 412.83 577.95 423.33C618.64 443.16 619.08 499.67 576.48 520.08C593.68 539.8 602.51 563.06 605.36 589.93C606.84 587.36 607.77 585.91 608.54 584.38C616.51 568.77 621.11 552.14 623.24 534.82C623.57 532.13 624.63 531.52 627.1 531.01C635.38 529.29 643.7 527.6 651.75 525.08C663.6 521.38 674.71 516.04 684.02 507.52C697.42 495.27 699.17 479.61 688.7 464.95C681.08 454.28 670.82 446.63 659.87 439.75C652.92 435.37 645.85 431.61 637.2 433.02C636.87 433.07 636.5 432.87 636.19 432.79V432.8ZM562.12 280.72C562.02 266 549.95 253.98 535.39 254.11C520.75 254.25 508.74 266.35 508.77 280.92C508.8 295.58 520.75 307.61 535.41 307.72C550.1 307.84 562.22 295.59 562.12 280.71V280.72ZM357.92 250.4C357.78 237.73 348.15 226.01 336.23 223.98C322.86 221.71 310.29 229.11 305.76 241.83C305.07 243.77 305.06 245.11 306.67 246.79C309.76 250.02 312.57 253.54 315.23 257.14C316.55 258.92 317.71 259.45 320.05 259.4C329.36 259.19 338.71 258.97 347.98 259.67C357.28 260.38 357.48 260.66 357.9 251.15C357.91 250.9 357.92 250.65 357.93 250.4H357.92ZM552.47 444.99C553.81 453.91 555.94 462.49 556.16 471.12C556.38 479.84 554.71 488.6 553.84 497.56C559.99 499.88 571.41 495.09 577.41 487.1C583.66 478.78 584.28 466.07 578.53 457.2C572.6 448.04 561.06 442.78 552.46 445L552.47 444.99Z" fill="#EFC1CF"/>
</svg>
