<svg width="40" height="40" viewBox="0 0 40 40" fill="none" xmlns="http://www.w3.org/2000/svg">
<mask id="mask0_135_546" style="mask-type:luminance" maskUnits="userSpaceOnUse" x="3" y="5" width="35" height="35">
<path d="M3.94531 5H37.2925V40H3.94531V5Z" fill="white"/>
</mask>
<g mask="url(#mask0_135_546)">
<path fill-rule="evenodd" clip-rule="evenodd" d="M3.95117 6.66662C3.95117 5.74621 4.69739 5 5.61796 5H35.6179C36.5383 5 37.2846 5.74621 37.2846 6.66662V11.6666C37.2846 12.1533 37.0719 12.6154 36.7026 12.9321L25.6179 22.4332V35C25.6179 35.6312 25.2612 36.2083 24.6966 36.4907L18.0298 39.824C17.5174 40.0803 16.9092 40.0554 16.4194 39.7578C15.9298 39.4606 15.6271 38.9324 15.6182 38.3594L15.3692 22.4323L4.51915 12.9199C4.15828 12.6034 3.95117 12.1467 3.95117 11.6666V6.66662ZM7.28458 8.33341V10.9113L18.1228 20.4134C18.4771 20.7238 18.6832 21.1696 18.6906 21.6407L18.9096 35.6574L22.2847 33.97V21.6667C22.2847 21.1802 22.4972 20.7178 22.8666 20.4011L33.9513 10.9002V8.33341H7.28458Z" fill="white"/>
</g>
</svg>
