<svg xmlns="http://www.w3.org/2000/svg" xmlns:xlink="http://www.w3.org/1999/xlink" width="1080" zoomAndPan="magnify" viewBox="0 0 810 809.999993" height="1080" preserveAspectRatio="xMidYMid meet" version="1.0"><path fill="#efc1cf" d="M 404.480469 234.464844 C 388.460938 220.222656 362.117188 213.816406 337.195312 218.441406 C 315.121094 222.359375 295.539062 242.652344 288.417969 255.824219 C 284.503906 263.300781 267.414062 307.449219 283.789062 337.355469 C 291.621094 350.527344 306.933594 363.34375 319.035156 367.261719 C 324.734375 369.042969 330.429688 369.753906 336.125 369.753906 C 359.625 369.753906 383.476562 357.292969 395.9375 346.613281 C 404.839844 339.136719 412.316406 328.453125 417.65625 316.351562 C 427.625 292.496094 429.761719 257.25 404.480469 234.464844 Z M 387.394531 307.449219 C 384.1875 314.925781 377.425781 321.691406 365.675781 329.167969 C 354.640625 336.289062 338.261719 341.628906 328.292969 337.355469 C 318.679688 333.4375 314.765625 325.25 312.273438 320.265625 L 311.917969 319.554688 C 306.21875 307.449219 309.066406 286.800781 314.410156 273.269531 C 317.257812 266.152344 321.171875 261.878906 324.019531 259.386719 C 333.277344 251.554688 343.601562 247.636719 355.351562 247.636719 C 359.625 247.636719 364.25 248.347656 368.878906 249.417969 C 375.644531 250.839844 380.628906 254.757812 384.1875 260.453125 C 392.019531 272.558594 393.445312 293.5625 387.394531 307.449219 Z M 387.394531 307.449219 " fill-opacity="1" fill-rule="nonzero"/><path fill="#efc1cf" d="M 598.515625 388.265625 C 596.023438 375.09375 575.019531 372.246094 569.675781 384.351562 C 536.921875 455.910156 495.625 523.554688 474.617188 597.609375 C 468.210938 569.839844 460.378906 542.78125 450.765625 515.722656 C 442.933594 493.292969 433.320312 471.933594 422.996094 450.570312 C 456.460938 462.320312 492.777344 461.609375 524.460938 440.246094 C 544.042969 427.074219 554.722656 409.273438 556.503906 385.773438 C 557.929688 364.769531 554.367188 341.273438 544.398438 322.402344 C 537.992188 310.296875 527.3125 301.039062 512.359375 293.5625 C 550.097656 262.945312 566.828125 205.980469 547.246094 160.765625 C 528.378906 117.6875 480.316406 92.054688 434.746094 103.089844 C 409.109375 109.144531 388.460938 126.945312 372.441406 143.320312 C 350.367188 104.160156 299.457031 85.289062 259.9375 109.855469 C 221.128906 134.066406 207.601562 187.46875 222.554688 228.410156 C 175.558594 231.261719 123.578125 254.757812 120.375 307.804688 C 116.816406 364.769531 164.878906 413.542969 222.554688 407.847656 C 215.078125 433.480469 215.433594 465.167969 230.742188 488.308594 C 241.777344 505.042969 260.648438 512.164062 279.875 515.722656 C 306.574219 520.707031 336.480469 519.285156 359.625 503.617188 C 374.578125 493.648438 385.96875 476.917969 392.378906 459.117188 C 405.195312 484.394531 415.875 510.738281 425.132812 537.796875 C 442.933594 588.351562 453.613281 641.398438 460.378906 694.449219 C 463.226562 706.550781 460.378906 724.710938 467.5 724.351562 C 542.976562 719.726562 608.839844 693.734375 624.148438 613.984375 C 637.679688 539.578125 611.332031 460.894531 598.515625 388.265625 Z M 365.320312 412.121094 C 361.757812 436.328125 355.351562 470.152344 330.429688 481.902344 C 314.40625 489.378906 294.828125 485.460938 278.449219 480.832031 C 266.699219 477.273438 256.730469 473.355469 252.460938 460.894531 C 248.542969 448.789062 250.324219 435.617188 253.171875 423.511719 C 256.730469 408.917969 264.921875 398.589844 271.328125 385.417969 C 277.027344 374.027344 269.191406 359.429688 256.375 358.714844 C 248.542969 358.003906 243.558594 362.988281 237.152344 366.550781 C 231.097656 370.109375 224.335938 372.246094 217.214844 373.3125 C 204.398438 375.09375 191.222656 372.957031 179.476562 367.261719 C 155.621094 355.511719 144.941406 330.234375 151.707031 304.601562 C 158.113281 283.59375 175.203125 270.421875 195.851562 265.792969 C 207.957031 262.945312 220.773438 262.589844 233.589844 263.660156 C 244.269531 264.371094 258.15625 269.355469 266.699219 260.097656 C 276.667969 249.0625 270.261719 238.738281 262.074219 229.835938 C 254.238281 221.292969 251.035156 210.609375 249.613281 199.21875 C 246.050781 171.09375 255.664062 140.828125 285.925781 133.351562 C 313.695312 126.589844 340.042969 144.035156 345.382812 171.804688 C 347.875 184.265625 353.570312 197.4375 369.59375 193.164062 C 376 191.386719 379.5625 186.402344 383.832031 181.417969 C 389.53125 175.363281 395.226562 169.667969 401.277344 163.972656 C 420.148438 147.238281 446.847656 126.945312 473.550781 131.21875 C 501.675781 135.488281 518.054688 166.820312 520.902344 192.453125 C 522.328125 207.40625 520.191406 222.714844 514.492188 236.246094 C 503.8125 262.234375 483.875 274.339844 457.53125 278.96875 C 444 281.460938 438.660156 294.277344 447.917969 305.3125 C 454.324219 312.789062 466.074219 313.859375 474.976562 316.707031 C 495.980469 323.113281 516.628906 331.660156 521.613281 355.15625 C 524.460938 368.683594 524.820312 383.996094 520.191406 397.167969 C 514.851562 411.765625 503.101562 418.527344 488.859375 422.800781 C 462.160156 430.632812 424.777344 430.277344 407.6875 404.644531 C 400.921875 394.320312 398.785156 379.367188 383.121094 381.144531 C 366.742188 382.570312 367.101562 399.304688 365.320312 412.121094 Z M 493.132812 690.53125 C 493.132812 599.390625 536.921875 521.417969 576.796875 441.671875 C 585.699219 485.460938 594.957031 529.253906 595.3125 574.109375 C 596.023438 646.027344 556.148438 682.34375 493.132812 690.53125 Z M 493.132812 690.53125 " fill-opacity="1" fill-rule="nonzero"/></svg>