<svg width="60" height="60" viewBox="0 0 60 60" fill="none" xmlns="http://www.w3.org/2000/svg">
<path d="M13.983 22.4778V16.9773C13.983 14.013 16.3936 11.6026 19.3579 11.6026H22.2057C22.4596 12.4192 23.2143 13.016 24.1153 13.016H35.1501C36.0511 13.016 36.8058 12.4192 37.06 11.6026H39.9076C42.8721 11.6026 45.2825 14.013 45.2825 16.9773V22.4778H47.0741V16.9773C47.0741 13.0262 43.8586 9.81099 39.9076 9.81099H36.7571C36.3894 9.32207 35.8104 9 35.1487 9H24.114C23.4537 9 22.8733 9.32207 22.5068 9.81236H19.3579C15.4069 9.81236 12.1914 13.0278 12.1914 16.9788V22.4791H13.983V22.4778Z" fill="#EFC1CF"/>
<path d="M51.0194 23.6063H8.24516C7.00588 23.6063 6 24.6122 6 25.8512C6 27.0921 7.00588 28.0964 8.24516 28.0964H8.83437C9.45777 31.6191 11.3763 42.3067 12.2671 45.6093C13.332 49.5471 14.5667 50.25 17.5105 50.25L40.8856 50.2471L41.754 50.25C44.6978 50.25 45.9325 49.5471 46.9961 45.6093C47.8882 42.3081 49.8067 31.6175 50.4301 28.0964H51.0194C52.2586 28.0964 53.2645 27.0921 53.2645 25.8512C53.2645 24.6106 52.2586 23.6063 51.0194 23.6063ZM46.1762 24.7761C46.77 24.7761 47.2516 25.2561 47.2516 25.8512C47.2516 26.4466 46.7716 26.928 46.1762 26.928C45.5811 26.928 45.101 26.4466 45.101 25.8512C45.101 25.2561 45.5827 24.7761 46.1762 24.7761ZM30.5274 28.0948H40.6153L39.6288 33.1492H30.5274V28.0948ZM13.0883 24.7761C13.6819 24.7761 14.1635 25.2561 14.1635 25.8512C14.1635 26.4466 13.6834 26.928 13.0883 26.928C12.4929 26.928 12.0129 26.4466 12.0129 25.8512C12.0129 25.2561 12.4929 24.7761 13.0883 24.7761ZM11.5639 28.0948H16.8235L17.8102 33.1492H12.4781C12.1075 31.1345 11.7811 29.3179 11.5639 28.0948ZM13.9093 40.6259C13.5565 38.874 13.1724 36.8773 12.8105 34.9394H18.1587L19.2694 40.6259H13.9093ZM18.3789 47.5574L17.5105 47.5604C15.7246 47.5604 15.5785 47.5604 14.8621 44.9063C14.7012 44.3126 14.5031 43.4441 14.2815 42.4161H19.6182L20.6238 47.5561H18.3789V47.5574ZM28.7372 47.559L22.4496 47.5574L21.4451 42.4175H28.7372V47.559ZM28.7372 40.6259H21.0966L19.9845 34.9394H28.7372V40.6259ZM28.7372 33.1492H19.6344L18.6476 28.0948H28.7358V33.1492H28.7372ZM36.8149 47.5604L30.5274 47.559V42.4175H37.8194L36.8149 47.5604ZM30.5274 40.6259V34.9394H39.28L38.1679 40.6259H30.5274ZM44.401 44.9077C43.6876 47.5561 43.5399 47.562 41.7645 47.562C41.7616 47.562 41.7586 47.562 41.754 47.562H38.6407L39.645 42.4189H44.9814C44.7614 43.4441 44.562 44.3126 44.401 44.9077ZM45.3552 40.6259H39.9951L41.1058 34.9394H46.4541C46.0921 36.8773 45.708 38.8756 45.3552 40.6259ZM46.7864 33.1492H41.4557L42.4424 28.0948H47.702C47.4834 29.3179 47.157 31.1345 46.7864 33.1492Z" fill="#EFC1CF"/>
</svg>
