<svg width="80" height="80" viewBox="0 0 80 80" fill="none" xmlns="http://www.w3.org/2000/svg">
<path d="M19.4722 30.6797V23.4643C19.4722 19.5758 22.6344 16.4139 26.5228 16.4139H30.2585C30.5916 17.4853 31.5816 18.268 32.7635 18.268H47.2385C48.4205 18.268 49.4104 17.4853 49.7438 16.4139H53.4792C57.368 16.4139 60.5298 19.5758 60.5298 23.4643V30.6797H62.88V23.4643C62.88 18.2815 58.662 14.0638 53.4792 14.0638H49.3465C48.8642 13.4225 48.1047 13 47.2367 13H32.7617C31.8955 13 31.1343 13.4225 30.6535 14.0656H26.5228C21.34 14.0656 17.1221 18.2836 17.1221 23.4664V30.6815H19.4722V30.6797Z" fill="#EFC1CF"/>
<path d="M68.0549 32.16H11.9451C10.3195 32.16 9 33.4795 9 35.1049C9 36.7326 10.3195 38.05 11.9451 38.05H12.718C13.5358 42.671 16.0524 56.6906 17.2209 61.0228C18.6178 66.1883 20.2375 67.1104 24.099 67.1104L54.7618 67.1065L55.901 67.1104C59.7625 67.1104 61.3822 66.1883 62.7773 61.0228C63.9476 56.6924 66.4642 42.6689 67.282 38.05H68.0549C69.6805 38.05 71 36.7326 71 35.1049C71 33.4774 69.6805 32.16 68.0549 32.16ZM61.7018 33.6945C62.4807 33.6945 63.1125 34.3242 63.1125 35.1049C63.1125 35.8858 62.4828 36.5173 61.7018 36.5173C60.9211 36.5173 60.2914 35.8858 60.2914 35.1049C60.2914 34.3242 60.9232 33.6945 61.7018 33.6945ZM41.1742 38.0479H54.4072L53.1131 44.6781H41.1742V38.0479ZM18.2982 33.6945C19.0768 33.6945 19.7086 34.3242 19.7086 35.1049C19.7086 35.8858 19.0789 36.5173 18.2982 36.5173C17.5172 36.5173 16.8875 35.8858 16.8875 35.1049C16.8875 34.3242 17.5172 33.6945 18.2982 33.6945ZM16.2985 38.0479H23.1979L24.4922 44.6781H17.4978C17.0116 42.0353 16.5835 39.6523 16.2985 38.0479ZM19.3752 54.4858C18.9123 52.1877 18.4085 49.5685 17.9337 47.0265H24.9494L26.4064 54.4858H19.3752ZM25.2382 63.5783L24.099 63.5822C21.7564 63.5822 21.5647 63.5822 20.625 60.1007C20.4139 59.3218 20.1541 58.1826 19.8635 56.8342H26.8639L28.183 63.5765H25.2382V63.5783ZM38.8258 63.5804L30.578 63.5783L29.2603 56.836H38.8258V63.5804ZM38.8258 54.4858H28.8032L27.3444 47.0265H38.8258V54.4858ZM38.8258 44.6781H26.8851L25.5907 38.0479H38.824V44.6781H38.8258ZM49.422 63.5822L41.1742 63.5804V56.836H50.7397L49.422 63.5822ZM41.1742 54.4858V47.0265H52.6556L51.1968 54.4858H41.1742ZM59.3732 60.1025C58.4373 63.5765 58.2436 63.5843 55.9147 63.5843C55.9108 63.5843 55.9069 63.5843 55.901 63.5843H51.817L53.1343 56.8377H60.1345C59.8459 58.1826 59.5843 59.3218 59.3732 60.1025ZM60.6248 54.4858H53.5936L55.0506 47.0265H62.0663C61.5915 49.5685 61.0877 52.1898 60.6248 54.4858ZM62.5022 44.6781H55.5096L56.8039 38.0479H63.7033C63.4165 39.6523 62.9884 42.0353 62.5022 44.6781Z" fill="#EFC1CF"/>
</svg>
