<svg width="60" height="60" viewBox="0 0 60 60" fill="none" xmlns="http://www.w3.org/2000/svg">
<rect width="60" height="60" rx="30" fill="white"/>
<path d="M8.49138 34.3084C9.55858 30.9444 13.6698 29.5668 16.7049 28.7546C18.6993 28.216 20.7898 27.9246 22.8628 27.8717C22.9152 27.8717 22.9766 27.8717 23.0291 27.8717C22.2244 27.2093 21.4458 26.5118 20.7023 25.779C18.358 23.4657 15.8303 20.6135 14.7194 17.4438C14.2207 16.0133 14.1158 14.3181 14.9205 12.9759C15.7515 11.5897 17.3085 10.901 18.8654 10.8832C22.4954 10.848 24.8659 14.1768 26.6503 16.9404C27.8749 18.83 28.8546 20.8166 29.6156 22.9005C29.7729 21.9379 29.983 20.9844 30.2278 20.0397C30.7439 18.1059 31.4611 16.2253 32.3359 14.424C33.0357 12.9759 33.9453 11.5897 35.2748 10.6625C38.2313 8.61403 42.2811 10.2033 43.4358 13.5498C44.5816 16.8874 42.2811 20.8607 40.4005 23.492C39.2371 25.1166 37.8815 26.5736 36.377 27.8539C37.6016 27.4919 38.8699 27.2623 40.1907 27.1917C43.4796 27.0063 47.5819 27.6066 50.031 30.0261C52.4277 32.3836 52.419 36.516 49.3663 38.2995C46.6285 39.8977 43.1209 39.1824 40.2432 38.4232C38.4849 37.9551 36.7793 37.337 35.1174 36.5953C35.9047 37.8492 36.5344 39.209 36.9804 40.6394C37.794 43.2707 38.415 46.8731 36.998 49.3984C35.5197 52.0473 31.916 52.3916 29.5631 50.767C27.0613 49.0365 25.8805 45.8312 25.4606 42.9085C25.172 40.8866 25.207 38.7763 25.6182 36.7454C22.4255 39.4384 18.3844 41.0633 14.1158 40.8249C10.7744 40.6306 7.29315 38.0964 8.49138 34.3084ZM24.6559 18.5474C23.6588 17.0375 22.5217 15.2982 20.9909 14.2915C20.0201 13.647 17.7982 13.0642 17.2998 14.6271C16.8712 15.9691 18.087 17.5939 18.7692 18.627C19.7489 20.0839 20.8509 21.4435 22.0581 22.715C24.1574 24.9224 26.5452 26.7856 29.1345 28.3395C28.1897 24.8606 26.6327 21.5318 24.6559 18.5474ZM38.1264 21.7703C39.5347 19.7218 42.7361 14.6271 39.3159 12.9583C36.0795 11.3776 34.3127 17.3467 33.6741 19.395C33.0705 21.3376 32.6596 23.3507 32.502 25.3817C32.4495 26.0791 32.4495 26.7856 32.4582 27.4831C34.6451 25.9203 36.5956 24.0043 38.1264 21.7703ZM40.7767 35.1032C42.22 35.5005 43.7158 35.8712 45.2202 35.8802C46.191 35.889 47.6868 35.8007 48.264 34.856C49.0864 33.505 47.5468 32.0746 46.4709 31.5182C45.0977 30.8031 43.4533 30.4851 41.9226 30.388C39.1148 30.2025 36.1583 30.7236 33.5779 31.9245C34.2777 32.366 34.9862 32.8163 35.721 33.1782C37.3391 33.9906 39.0273 34.6263 40.7767 35.1032ZM28.8894 42.4319C29.1781 44.5509 30.1316 48.2329 32.7294 48.4713C35.5547 48.7185 34.7851 44.0565 34.435 42.4141C33.8228 39.5356 30.3415 34.5116 30.289 34.4055C29.1082 36.9221 28.5046 39.6239 28.8894 42.4319ZM12.2178 36.4894C13.11 37.5666 14.9381 37.4519 16.1801 37.3811C17.6495 37.3018 19.0755 36.9485 20.4748 36.4806C23.0204 35.633 25.5394 34.026 27.3325 31.9597C26.624 31.8716 24.1398 31.6773 23.2476 31.6683C21.4983 31.6683 19.7663 31.8625 18.0694 32.2777C16.8712 32.569 10.3633 34.2466 12.2178 36.4894Z" fill="#EFC1CF"/>
</svg>
