<svg width="40" height="40" viewBox="0 0 40 40" fill="none" xmlns="http://www.w3.org/2000/svg">
<g clip-path="url(#clip0_134_527)">
<path fill-rule="evenodd" clip-rule="evenodd" d="M25.7099 29.2498L35.5069 39.0438C36.477 40.0135 38.0523 40.0131 39.0224 39.043C39.9921 38.0727 39.9917 36.4975 39.0218 35.5276L29.2311 25.7405C31.2006 23.0615 32.365 19.7533 32.365 16.1752C32.365 7.24768 25.1171 0 16.1898 0C7.26253 0 0.0146484 7.24768 0.0146484 16.1752C0.0146484 25.1024 7.26253 32.3501 16.1898 32.3501C19.7475 32.3501 23.0382 31.1995 25.7099 29.2498ZM16.1898 4.97145C22.3733 4.97145 27.3937 9.9917 27.3937 16.1752C27.3937 22.3586 22.3733 27.379 16.1898 27.379C10.0064 27.379 4.98629 22.3586 4.98629 16.1752C4.98629 9.9917 10.0064 4.97145 16.1898 4.97145Z" fill="white"/>
</g>
<defs>
<clipPath id="clip0_134_527">
<rect width="40" height="40" fill="white"/>
</clipPath>
</defs>
</svg>
